<svg width="414" height="209" viewBox="0 0 414 209" fill="none" xmlns="http://www.w3.org/2000/svg">
<path d="M159 106.761C159 107.32 160.639 112.648 163.919 122.745C167.199 132.842 170.779 143.893 174.659 155.898C178.539 167.904 183.758 183.771 190.318 203.5H196.276L159.554 93.5H158.445L122 203.5H127.682L159 106.761ZM156.505 172.231H151.517L159.831 203.5H164.82L156.505 172.231ZM218.864 176V93.5H214.291V176H218.864ZM256.141 203.5V198.754H218.864V185.074H214.291V203.5H256.141ZM277.897 203.5V117.371H283.44V113.462H274.156V203.5H277.897ZM311.155 97.4086V93.5H274.156V97.4086H311.155ZM329.17 93.5V203.5H332.773V93.5H329.17ZM354.668 162.739V97.4086H387.926V93.5H350.788V162.739H354.668ZM389.312 203.5V199.731H354.668V170.835H360.211V167.066H350.788V203.5H389.312Z" fill="white"/>
<path d="M50.2924 86.2333C55.3858 86.2333 59.5149 82.1196 59.5149 77.0452C59.5149 71.9707 55.3858 67.857 50.2924 67.857C45.199 67.857 41.07 71.9707 41.07 77.0452C41.07 82.1196 45.199 86.2333 50.2924 86.2333Z" fill="#DD6B20"/>
<path d="M8.81263 91.8567C8.81263 91.8567 5.66237 111.49 11.9358 124.835C11.9358 124.835 39.2974 136.24 57.8873 138.119C76.4281 139.994 105.456 134.336 105.456 134.336C70.2171 120.35 69.6207 99.1849 69.6207 99.1849C69.6207 99.1849 88.7304 103.282 104.013 103.282C119.298 103.282 124 88.0442 124 88.0442C124 88.0442 114.194 81.1567 104.967 73.8891C100.25 70.2296 96.8245 65.1665 95.1879 59.435C92.6429 50.9631 87.2731 43.6142 79.9649 38.6036C79.9649 38.6036 80.4991 16.6127 75.5008 9.00221C67.5725 12.9345 63.7699 16.8505 58.6386 21.3599L48.1748 0.5C48.1748 0.5 29.4063 17.0519 24.2525 41.914C24.6865 42.0692 33.7462 51.7974 37.2725 55.426C37.2725 55.426 38.4517 57.1357 38.6287 58.3986C38.7759 59.449 38.3575 61.101 38.3575 61.101L41.6125 64.0736C47.3087 61.101 53.4661 60.4022 58.9724 64.3439C65.7749 69.2135 68.1879 78.3963 63.3124 85.9631C58.4369 93.5298 48.8308 93.8274 41.8837 89.4762C34.6368 84.9373 32.6612 76.7749 37.2725 68.1272L34.2887 65.1546C34.2887 65.1546 32.797 65.5605 31.8475 65.4248C30.8148 65.2773 30.3385 64.8104 29.4063 64.3439L16.8847 51.9129C-0.258011 71.9158 -0.0221748 98.6592 0.0031914 98.5917C6.75819 91.8567 8.81263 91.8567 8.81263 91.8567Z" fill="#DD6B20"/>
</svg>
