<svg width="720" height="1024" viewBox="0 0 720 1024" fill="none" xmlns="http://www.w3.org/2000/svg">
<g clip-path="url(#clip0_66_4226)">
<mask id="mask0_66_4226" style="mask-type:luminance" maskUnits="userSpaceOnUse" x="-2" y="0" width="723" height="1082">
<path d="M-0.302423 9.77499e-06L-2 1080.57L718.38 1081.7L720.078 1.13173L-0.302423 9.77499e-06Z" fill="white"/>
</mask>
<g mask="url(#mask0_66_4226)">
<path d="M423.419 688.071C437.517 702.501 440.189 713.239 433.022 721.116C423.609 731.461 411.711 737.971 403.285 735.183C393.475 731.936 395.569 714.446 393.005 700.16C390.002 683.416 417.628 682.141 423.419 688.071Z" stroke="url(#paint0_linear_66_4226)" stroke-width="3.6545" stroke-miterlimit="10"/>
<path d="M402.601 704.641C404.036 712.641 402.864 722.436 408.358 724.254C413.075 725.816 419.739 722.17 425.01 716.377C429.024 711.966 427.528 705.953 419.633 697.872C416.388 694.551 400.918 695.265 402.601 704.641ZM417.852 702.477C422.832 707.575 423.776 711.367 421.244 714.151C417.919 717.806 413.715 720.106 410.739 719.121C407.273 717.975 408.013 711.796 407.107 706.749C406.047 700.831 415.807 700.381 417.852 702.477Z" fill="url(#paint1_linear_66_4226)"/>
<path d="M430.537 669.263C455.992 696.588 460.144 710.662 447.022 724.397C429.232 743.017 412.792 753.827 398.053 749.386C380.163 743.997 386.207 715.564 380.479 690.287C373.443 659.237 420.849 658.864 430.537 669.263Z" stroke="url(#paint2_linear_66_4226)" stroke-width="3.5632" stroke-miterlimit="10"/>
<path d="M437.676 650.458C474.462 690.7 480.119 708.086 461.045 727.679C434.873 754.567 413.895 769.69 392.844 763.593C366.871 756.07 376.856 716.698 367.977 680.417C356.879 635.076 424.087 635.592 437.676 650.458Z" stroke="url(#paint3_linear_66_4226)" stroke-width="3.4718" stroke-miterlimit="10"/>
<path d="M444.823 631.654C492.93 684.819 500.1 705.508 475.076 730.965C440.52 766.118 415.007 785.557 387.642 777.801C353.586 768.147 367.508 717.837 355.481 670.549C340.315 610.922 427.331 612.324 444.823 631.654Z" stroke="url(#paint4_linear_66_4226)" stroke-width="3.3804" stroke-miterlimit="10"/>
<path d="M451.973 612.851C511.399 678.94 520.083 702.93 489.11 734.249C446.169 777.668 416.12 801.425 382.441 792.008C340.303 780.226 358.16 718.978 342.986 660.681C323.75 586.769 430.576 589.055 451.973 612.851Z" stroke="url(#paint5_linear_66_4226)" stroke-width="3.2891" stroke-miterlimit="10"/>
<path d="M459.139 594.048C529.88 673.064 540.022 700.292 503.159 737.535C451.748 789.133 417.251 817.295 377.258 806.218C327.038 792.307 348.829 720.122 330.509 650.814C307.198 562.622 433.837 565.787 459.139 594.048Z" stroke="url(#paint6_linear_66_4226)" stroke-width="3.1977" stroke-miterlimit="10"/>
<path d="M466.291 575.232C548.347 667.175 560.009 697.703 517.194 740.806C457.401 800.671 418.342 833.233 372.061 820.411C313.728 804.478 339.482 721.251 318.017 640.931C290.632 538.458 437.084 542.505 466.291 575.232Z" stroke="url(#paint7_linear_66_4226)" stroke-width="3.1063" stroke-miterlimit="10"/>
<path d="M473.444 556.428C566.812 661.299 579.998 695.125 531.231 744.092C463.055 812.222 419.46 849.101 366.864 834.62C300.449 816.557 330.137 722.395 305.527 631.064C274.067 514.308 440.332 519.237 473.444 556.428Z" stroke="url(#paint8_linear_66_4226)" stroke-width="3.015" stroke-miterlimit="10"/>
<path d="M480.597 537.626C585.278 655.426 599.986 692.55 545.267 747.377C468.708 823.773 420.578 864.968 361.668 848.828C287.171 828.634 320.792 723.539 293.038 621.195C257.501 490.159 443.58 495.968 480.597 537.626Z" stroke="url(#paint9_linear_66_4226)" stroke-width="2.9236" stroke-miterlimit="10"/>
<path d="M487.751 518.822C603.745 649.55 619.976 689.973 559.305 750.663C474.363 835.325 421.697 880.835 356.474 863.038C273.894 840.714 311.448 724.684 280.549 611.329C240.935 466.011 446.828 472.701 487.751 518.822Z" stroke="url(#paint10_linear_66_4226)" stroke-width="2.8323" stroke-miterlimit="10"/>
<path d="M494.938 500.003C621.989 643.885 639.999 687.38 573.376 753.931C480.05 846.859 422.849 896.684 351.311 877.228C260.649 852.774 302.136 725.81 268.092 601.443C224.404 441.846 450.021 449.495 494.938 500.003Z" stroke="url(#paint11_linear_66_4226)" stroke-width="2.7409" stroke-miterlimit="10"/>
<path d="M502.092 481.199C640.463 638.003 659.988 684.804 587.413 757.216C485.705 858.41 423.966 912.552 346.115 891.437C247.372 864.853 292.791 726.955 255.602 591.576C207.837 417.697 453.27 426.225 502.092 481.199Z" stroke="url(#paint12_linear_66_4226)" stroke-width="2.6495" stroke-miterlimit="10"/>
<path d="M509.282 462.384C658.973 632.11 680.015 682.214 601.487 760.489C491.395 869.948 425.121 928.406 340.956 905.632C234.131 876.919 283.221 728.158 243.149 581.695C190.97 393.632 456.559 402.941 509.282 462.384Z" stroke="url(#paint13_linear_66_4226)" stroke-width="2.5582" stroke-miterlimit="10"/>
<path d="M516.434 443.581C677.444 626.229 700.001 679.639 615.522 763.775C497.047 881.501 426.238 944.275 335.759 919.842C220.851 888.997 273.883 729.301 230.658 571.827C174.413 369.482 459.808 379.672 516.434 443.581Z" stroke="url(#paint14_linear_66_4226)" stroke-width="2.4668" stroke-miterlimit="10"/>
<path d="M523.586 424.781C695.916 620.351 719.99 677.064 629.558 767.062C502.702 893.054 427.355 960.144 330.562 934.052C207.573 901.077 264.547 730.447 218.168 561.961C157.857 345.331 463.058 356.403 523.586 424.781Z" stroke="url(#paint15_linear_66_4226)" stroke-width="2.3754" stroke-miterlimit="10"/>
<path d="M530.739 405.978C714.388 614.47 739.977 674.489 643.594 770.349C508.353 904.606 428.471 976.011 325.365 948.262C194.293 913.156 255.209 731.589 205.676 552.096C141.301 321.181 466.306 333.133 530.739 405.978Z" stroke="url(#paint16_linear_66_4226)" stroke-width="2.2841" stroke-miterlimit="10"/>
<path d="M537.89 387.176C732.859 608.589 759.964 671.913 657.63 773.634C514.007 916.158 429.589 991.879 320.167 962.47C181.014 925.235 245.872 732.731 193.185 542.227C124.745 297.031 469.555 309.864 537.89 387.176Z" stroke="url(#paint17_linear_66_4226)" stroke-width="2.1927" stroke-miterlimit="10"/>
<path d="M545.043 368.374C751.331 602.71 779.952 669.338 671.665 776.921C519.66 927.71 430.705 1007.75 314.97 976.68C167.734 937.315 236.534 733.875 180.693 532.361C108.189 272.881 472.805 286.594 545.043 368.374Z" stroke="url(#paint18_linear_66_4226)" stroke-width="2.1014" stroke-miterlimit="10"/>
<path d="M552.196 349.572C769.803 596.83 799.941 666.763 685.702 780.208C525.312 939.263 431.823 1023.62 309.774 990.89C154.455 949.394 227.198 735.019 168.202 522.494C91.6324 248.731 476.054 263.325 552.196 349.572Z" stroke="url(#paint19_linear_66_4226)" stroke-width="2.01" stroke-miterlimit="10"/>
<path d="M559.347 330.769C788.274 590.949 819.927 664.187 699.737 783.493C530.965 950.815 432.939 1039.48 304.576 1005.1C141.176 961.474 217.861 736.161 155.712 512.628C75.0756 224.581 479.304 240.054 559.347 330.769Z" stroke="url(#paint20_linear_66_4226)" stroke-width="1.9186" stroke-miterlimit="10"/>
<path d="M566.499 311.967C806.747 585.07 839.914 661.612 713.772 786.78C536.618 962.367 434.056 1055.35 299.379 1019.31C127.897 973.552 208.523 737.305 143.22 502.761C58.5203 200.432 482.553 216.785 566.499 311.967Z" stroke="url(#paint21_linear_66_4226)" stroke-width="1.8273" stroke-miterlimit="10"/>
<path d="M573.651 293.166C825.217 579.19 859.902 659.037 727.807 790.067C542.27 973.92 435.173 1071.22 294.181 1033.52C114.618 985.631 199.187 738.448 130.729 492.894C41.9635 176.282 485.803 193.515 573.651 293.166Z" stroke="url(#paint22_linear_66_4226)" stroke-width="1.7359" stroke-miterlimit="10"/>
<path d="M580.803 274.364C843.689 573.309 879.891 656.461 741.843 793.352C547.923 985.472 436.29 1087.09 288.985 1047.73C101.338 997.711 189.849 739.591 118.238 483.026C25.4081 152.132 489.052 170.246 580.803 274.364Z" stroke="url(#paint23_linear_66_4226)" stroke-width="1.6445" stroke-miterlimit="10"/>
<path d="M587.956 255.562C862.162 567.429 899.878 653.886 755.88 796.639C553.576 997.024 437.406 1102.96 283.787 1061.94C88.0595 1009.79 180.512 740.734 105.747 473.159C8.85142 127.982 492.301 146.977 587.956 255.562Z" stroke="url(#paint24_linear_66_4226)" stroke-width="1.5532" stroke-miterlimit="10"/>
<path d="M595.107 236.76C880.633 561.548 919.865 651.311 769.915 799.926C559.228 1008.58 438.522 1118.82 278.591 1076.15C74.7812 1021.87 171.176 741.878 93.2562 463.293C-7.70396 103.831 495.551 123.706 595.107 236.76Z" stroke="url(#paint25_linear_66_4226)" stroke-width="1.4618" stroke-miterlimit="10"/>
<path d="M602.26 217.957C899.106 555.669 939.853 648.736 783.951 803.211C564.881 1020.13 439.64 1134.69 273.394 1090.36C61.5014 1033.95 161.838 743.022 80.7659 453.428C-24.2607 79.6813 498.8 100.437 602.26 217.957Z" stroke="url(#paint26_linear_66_4226)" stroke-width="1.3705" stroke-miterlimit="10"/>
<path d="M609.413 199.155C917.577 549.789 959.842 646.159 797.987 806.498C570.534 1031.68 440.758 1150.56 268.196 1104.57C48.2217 1046.03 152.501 744.164 68.2741 443.559C-40.816 55.5326 502.05 77.167 609.413 199.155Z" stroke="url(#paint27_linear_66_4226)" stroke-width="1.2791" stroke-miterlimit="10"/>
<path d="M616.564 180.353C936.048 543.908 979.828 643.584 812.022 809.784C576.187 1043.23 441.874 1166.43 262.999 1118.77C34.9433 1058.11 143.163 745.308 55.7823 433.693C-57.3728 31.3823 505.299 53.8979 616.564 180.353Z" stroke="url(#paint28_linear_66_4226)" stroke-width="1.1877" stroke-miterlimit="10"/>
<path d="M623.717 161.552C954.521 538.029 999.817 641.009 826.058 813.072C581.839 1054.79 442.991 1182.3 257.803 1132.98C21.6636 1070.19 133.827 746.45 43.292 423.826C-73.9282 7.23217 508.549 30.6288 623.717 161.552Z" stroke="url(#paint29_linear_66_4226)" stroke-width="1.0964" stroke-miterlimit="10"/>
<path d="M630.933 142.776C973.055 532.175 1019.87 638.461 840.158 816.383C587.555 1066.36 444.171 1198.19 252.668 1147.22C8.44717 1082.29 124.554 747.62 30.8636 413.986C-90.4216 -16.8904 511.862 7.38603 630.933 142.776Z" stroke="url(#paint30_linear_66_4226)" stroke-width="1.005" stroke-miterlimit="10"/>
<path d="M638.079 123.972C991.522 526.293 1039.85 635.883 854.187 819.667C593.204 1077.91 445.283 1214.06 247.465 1161.43C-4.83694 1094.37 115.21 748.76 18.3675 404.116C-106.983 -41.0434 515.105 -15.8859 638.079 123.972Z" stroke="url(#paint31_linear_66_4226)" stroke-width="0.9136" stroke-miterlimit="10"/>
<path d="M645.225 105.167C1009.99 520.41 1059.83 633.305 868.218 822.953C598.851 1089.46 446.393 1229.92 242.263 1175.63C-18.1224 1106.45 105.868 749.901 5.87142 394.247C-123.545 -65.1965 518.349 -39.1578 645.225 105.167Z" stroke="url(#paint32_linear_66_4226)" stroke-width="0.8223" stroke-miterlimit="10"/>
<path d="M652.372 86.3632C1028.45 514.528 1079.81 630.727 882.247 826.237C604.498 1101.01 447.505 1245.79 237.06 1189.84C-31.4065 1118.52 96.5256 751.042 -6.6261 384.379C-140.106 -89.3482 521.593 -62.4311 652.372 86.3632Z" stroke="url(#paint33_linear_66_4226)" stroke-width="0.7309" stroke-miterlimit="10"/>
<path d="M659.519 67.5581C1046.92 508.646 1099.8 628.149 896.278 829.52C610.145 1112.56 448.615 1261.65 231.857 1204.05C-44.6921 1130.6 87.1819 752.183 -19.1222 374.508C-156.669 -113.5 524.836 -85.7029 659.519 67.5581Z" stroke="url(#paint34_linear_66_4226)" stroke-width="0.6395" stroke-miterlimit="10"/>
<path d="M666.664 48.7545C1065.39 502.763 1119.78 625.571 910.308 832.804C615.791 1124.11 449.727 1277.52 226.655 1218.26C-57.9761 1142.68 77.8397 753.324 -31.6197 364.64C-173.23 -137.653 528.08 -108.975 666.664 48.7545Z" stroke="url(#paint35_linear_66_4226)" stroke-width="0.5482" stroke-miterlimit="10"/>
<path d="M673.811 29.9493C1083.85 496.881 1139.76 622.994 924.338 836.088C621.44 1135.66 450.838 1293.39 221.453 1232.46C-71.2602 1154.75 68.4974 754.464 -44.1158 354.77C-189.792 -161.806 531.324 -132.247 673.811 29.9493Z" stroke="url(#paint36_linear_66_4226)" stroke-width="0.4568" stroke-miterlimit="10"/>
<path d="M680.958 11.1456C1102.32 490.998 1159.74 620.417 938.368 839.372C627.085 1147.21 451.948 1309.25 216.248 1246.67C-84.5472 1166.83 59.1537 755.605 -56.6133 344.901C-206.354 -185.957 534.567 -155.519 680.958 11.1456Z" stroke="url(#paint37_linear_66_4226)" stroke-width="0.3655" stroke-miterlimit="10"/>
<path d="M688.104 -7.65964C1120.78 485.116 1179.72 617.838 952.398 842.656C632.734 1158.76 453.06 1325.12 211.046 1260.88C-97.8313 1178.91 49.8114 756.746 -69.1094 335.032C-222.916 -210.111 537.811 -178.79 688.104 -7.65964Z" stroke="url(#paint38_linear_66_4226)" stroke-width="0.2741" stroke-miterlimit="10"/>
<path d="M695.251 -26.4634C1139.25 479.233 1199.71 615.261 966.428 845.94C638.379 1170.31 454.172 1340.98 205.843 1275.08C-111.117 1190.98 40.4679 757.887 -81.6068 325.162C-239.477 -234.262 541.055 -202.062 695.251 -26.4634Z" stroke="url(#paint39_linear_66_4226)" stroke-width="0.1827" stroke-miterlimit="10"/>
<path d="M702.397 -45.2684C1157.72 473.351 1219.69 612.684 980.458 849.224C644.028 1181.86 455.282 1356.85 200.641 1289.29C-124.401 1203.06 31.1255 759.028 -94.103 315.293C-256.04 -258.415 544.299 -225.334 702.397 -45.2684Z" stroke="url(#paint40_linear_66_4226)" stroke-width="0.0914" stroke-miterlimit="10"/>
</g>
</g>
<defs>
<linearGradient id="paint0_linear_66_4226" x1="392.758" y1="710.311" x2="436.866" y2="710.38" gradientUnits="userSpaceOnUse">
<stop stop-color="#422F6A"/>
<stop offset="1" stop-color="#313131"/>
</linearGradient>
<linearGradient id="paint1_linear_66_4226" x1="402.462" y1="710.326" x2="427.163" y2="710.365" gradientUnits="userSpaceOnUse">
<stop stop-color="#422F6A"/>
<stop offset="1" stop-color="#313131"/>
</linearGradient>
<linearGradient id="paint2_linear_66_4226" x1="379.735" y1="706.721" x2="454.294" y2="706.839" gradientUnits="userSpaceOnUse">
<stop stop-color="#422F6A"/>
<stop offset="1" stop-color="#313131"/>
</linearGradient>
<linearGradient id="paint3_linear_66_4226" x1="366.695" y1="703.131" x2="471.74" y2="703.296" gradientUnits="userSpaceOnUse">
<stop stop-color="#422F6A"/>
<stop offset="1" stop-color="#313131"/>
</linearGradient>
<linearGradient id="paint4_linear_66_4226" x1="353.649" y1="699.542" x2="489.193" y2="699.755" gradientUnits="userSpaceOnUse">
<stop stop-color="#422F6A"/>
<stop offset="1" stop-color="#313131"/>
</linearGradient>
<linearGradient id="paint5_linear_66_4226" x1="340.599" y1="695.953" x2="506.647" y2="696.213" gradientUnits="userSpaceOnUse">
<stop stop-color="#422F6A"/>
<stop offset="1" stop-color="#313131"/>
</linearGradient>
<linearGradient id="paint6_linear_66_4226" x1="327.562" y1="692.362" x2="524.091" y2="692.671" gradientUnits="userSpaceOnUse">
<stop stop-color="#422F6A"/>
<stop offset="1" stop-color="#313131"/>
</linearGradient>
<linearGradient id="paint7_linear_66_4226" x1="314.51" y1="688.772" x2="541.548" y2="689.129" gradientUnits="userSpaceOnUse">
<stop stop-color="#422F6A"/>
<stop offset="1" stop-color="#313131"/>
</linearGradient>
<linearGradient id="paint8_linear_66_4226" x1="301.459" y1="685.183" x2="559.006" y2="685.588" gradientUnits="userSpaceOnUse">
<stop stop-color="#422F6A"/>
<stop offset="1" stop-color="#313131"/>
</linearGradient>
<linearGradient id="paint9_linear_66_4226" x1="288.407" y1="681.593" x2="576.463" y2="682.046" gradientUnits="userSpaceOnUse">
<stop stop-color="#422F6A"/>
<stop offset="1" stop-color="#313131"/>
</linearGradient>
<linearGradient id="paint10_linear_66_4226" x1="275.355" y1="678.004" x2="593.923" y2="678.504" gradientUnits="userSpaceOnUse">
<stop stop-color="#422F6A"/>
<stop offset="1" stop-color="#313131"/>
</linearGradient>
<linearGradient id="paint11_linear_66_4226" x1="262.333" y1="674.415" x2="611.348" y2="674.963" gradientUnits="userSpaceOnUse">
<stop stop-color="#422F6A"/>
<stop offset="1" stop-color="#313131"/>
</linearGradient>
<linearGradient id="paint12_linear_66_4226" x1="249.279" y1="670.825" x2="628.809" y2="671.421" gradientUnits="userSpaceOnUse">
<stop stop-color="#422F6A"/>
<stop offset="1" stop-color="#313131"/>
</linearGradient>
<linearGradient id="paint13_linear_66_4226" x1="236.188" y1="667.234" x2="646.306" y2="667.878" gradientUnits="userSpaceOnUse">
<stop stop-color="#422F6A"/>
<stop offset="1" stop-color="#313131"/>
</linearGradient>
<linearGradient id="paint14_linear_66_4226" x1="223.136" y1="663.645" x2="663.764" y2="664.337" gradientUnits="userSpaceOnUse">
<stop stop-color="#422F6A"/>
<stop offset="1" stop-color="#313131"/>
</linearGradient>
<linearGradient id="paint15_linear_66_4226" x1="210.083" y1="660.056" x2="681.223" y2="660.796" gradientUnits="userSpaceOnUse">
<stop stop-color="#422F6A"/>
<stop offset="1" stop-color="#313131"/>
</linearGradient>
<linearGradient id="paint16_linear_66_4226" x1="197.03" y1="656.466" x2="698.682" y2="657.254" gradientUnits="userSpaceOnUse">
<stop stop-color="#422F6A"/>
<stop offset="1" stop-color="#313131"/>
</linearGradient>
<linearGradient id="paint17_linear_66_4226" x1="183.977" y1="652.876" x2="716.141" y2="653.712" gradientUnits="userSpaceOnUse">
<stop stop-color="#422F6A"/>
<stop offset="1" stop-color="#313131"/>
</linearGradient>
<linearGradient id="paint18_linear_66_4226" x1="170.923" y1="649.286" x2="733.6" y2="650.17" gradientUnits="userSpaceOnUse">
<stop stop-color="#422F6A"/>
<stop offset="1" stop-color="#313131"/>
</linearGradient>
<linearGradient id="paint19_linear_66_4226" x1="157.871" y1="645.697" x2="751.059" y2="646.629" gradientUnits="userSpaceOnUse">
<stop stop-color="#422F6A"/>
<stop offset="1" stop-color="#313131"/>
</linearGradient>
<linearGradient id="paint20_linear_66_4226" x1="144.818" y1="642.107" x2="768.517" y2="643.087" gradientUnits="userSpaceOnUse">
<stop stop-color="#422F6A"/>
<stop offset="1" stop-color="#313131"/>
</linearGradient>
<linearGradient id="paint21_linear_66_4226" x1="131.765" y1="638.517" x2="785.976" y2="639.545" gradientUnits="userSpaceOnUse">
<stop stop-color="#422F6A"/>
<stop offset="1" stop-color="#313131"/>
</linearGradient>
<linearGradient id="paint22_linear_66_4226" x1="118.711" y1="634.928" x2="803.435" y2="636.003" gradientUnits="userSpaceOnUse">
<stop stop-color="#422F6A"/>
<stop offset="1" stop-color="#313131"/>
</linearGradient>
<linearGradient id="paint23_linear_66_4226" x1="105.659" y1="631.338" x2="820.895" y2="632.461" gradientUnits="userSpaceOnUse">
<stop stop-color="#422F6A"/>
<stop offset="1" stop-color="#313131"/>
</linearGradient>
<linearGradient id="paint24_linear_66_4226" x1="92.605" y1="627.748" x2="838.354" y2="628.92" gradientUnits="userSpaceOnUse">
<stop stop-color="#422F6A"/>
<stop offset="1" stop-color="#313131"/>
</linearGradient>
<linearGradient id="paint25_linear_66_4226" x1="79.5525" y1="624.159" x2="855.812" y2="625.378" gradientUnits="userSpaceOnUse">
<stop stop-color="#422F6A"/>
<stop offset="1" stop-color="#313131"/>
</linearGradient>
<linearGradient id="paint26_linear_66_4226" x1="66.4998" y1="620.569" x2="873.272" y2="621.837" gradientUnits="userSpaceOnUse">
<stop stop-color="#422F6A"/>
<stop offset="1" stop-color="#313131"/>
</linearGradient>
<linearGradient id="paint27_linear_66_4226" x1="53.4463" y1="616.979" x2="890.731" y2="618.295" gradientUnits="userSpaceOnUse">
<stop stop-color="#422F6A"/>
<stop offset="1" stop-color="#313131"/>
</linearGradient>
<linearGradient id="paint28_linear_66_4226" x1="40.3924" y1="613.39" x2="908.189" y2="614.753" gradientUnits="userSpaceOnUse">
<stop stop-color="#422F6A"/>
<stop offset="1" stop-color="#313131"/>
</linearGradient>
<linearGradient id="paint29_linear_66_4226" x1="27.34" y1="609.8" x2="925.649" y2="611.211" gradientUnits="userSpaceOnUse">
<stop stop-color="#422F6A"/>
<stop offset="1" stop-color="#313131"/>
</linearGradient>
<linearGradient id="paint30_linear_66_4226" x1="14.3495" y1="606.237" x2="943.171" y2="607.696" gradientUnits="userSpaceOnUse">
<stop stop-color="#422F6A"/>
<stop offset="1" stop-color="#313131"/>
</linearGradient>
<linearGradient id="paint31_linear_66_4226" x1="1.29123" y1="602.645" x2="960.624" y2="604.152" gradientUnits="userSpaceOnUse">
<stop stop-color="#422F6A"/>
<stop offset="1" stop-color="#313131"/>
</linearGradient>
<linearGradient id="paint32_linear_66_4226" x1="-11.7674" y1="599.052" x2="978.078" y2="600.608" gradientUnits="userSpaceOnUse">
<stop stop-color="#422F6A"/>
<stop offset="1" stop-color="#313131"/>
</linearGradient>
<linearGradient id="paint33_linear_66_4226" x1="-24.8267" y1="595.461" x2="995.532" y2="597.064" gradientUnits="userSpaceOnUse">
<stop stop-color="#422F6A"/>
<stop offset="1" stop-color="#313131"/>
</linearGradient>
<linearGradient id="paint34_linear_66_4226" x1="-37.8853" y1="591.868" x2="1012.98" y2="593.519" gradientUnits="userSpaceOnUse">
<stop stop-color="#422F6A"/>
<stop offset="1" stop-color="#313131"/>
</linearGradient>
<linearGradient id="paint35_linear_66_4226" x1="-50.9446" y1="588.276" x2="1030.44" y2="589.975" gradientUnits="userSpaceOnUse">
<stop stop-color="#422F6A"/>
<stop offset="1" stop-color="#313131"/>
</linearGradient>
<linearGradient id="paint36_linear_66_4226" x1="-64.0033" y1="584.684" x2="1047.89" y2="586.431" gradientUnits="userSpaceOnUse">
<stop stop-color="#422F6A"/>
<stop offset="1" stop-color="#313131"/>
</linearGradient>
<linearGradient id="paint37_linear_66_4226" x1="-77.0626" y1="581.092" x2="1065.35" y2="582.887" gradientUnits="userSpaceOnUse">
<stop stop-color="#422F6A"/>
<stop offset="1" stop-color="#313131"/>
</linearGradient>
<linearGradient id="paint38_linear_66_4226" x1="-90.1212" y1="577.5" x2="1082.8" y2="579.342" gradientUnits="userSpaceOnUse">
<stop stop-color="#422F6A"/>
<stop offset="1" stop-color="#313131"/>
</linearGradient>
<linearGradient id="paint39_linear_66_4226" x1="-103.18" y1="573.907" x2="1100.25" y2="575.798" gradientUnits="userSpaceOnUse">
<stop stop-color="#422F6A"/>
<stop offset="1" stop-color="#313131"/>
</linearGradient>
<linearGradient id="paint40_linear_66_4226" x1="-116.239" y1="570.316" x2="1117.71" y2="572.254" gradientUnits="userSpaceOnUse">
<stop stop-color="#422F6A"/>
<stop offset="1" stop-color="#313131"/>
</linearGradient>
<clipPath id="clip0_66_4226">
<rect width="1080.57" height="720.381" fill="white" transform="translate(-2 1080.57) rotate(-89.91)"/>
</clipPath>
</defs>
</svg>
