<svg width="125" height="139" viewBox="0 0 125 139" fill="none" xmlns="http://www.w3.org/2000/svg">
<path d="M50.7924 86.1516C55.8858 86.1516 60.0149 82.038 60.0149 76.9635C60.0149 71.889 55.8858 67.7753 50.7924 67.7753C45.699 67.7753 41.57 71.889 41.57 76.9635C41.57 82.038 45.699 86.1516 50.7924 86.1516Z" fill="#805AD5"/>
<path d="M9.31263 91.7751C9.31263 91.7751 6.16237 111.408 12.4358 124.754C12.4358 124.754 39.7974 136.158 58.3873 138.038C76.9281 139.912 105.956 134.254 105.956 134.254C70.7171 120.268 70.1207 99.1032 70.1207 99.1032C70.1207 99.1032 89.2304 103.2 104.513 103.2C119.798 103.2 124.5 87.9626 124.5 87.9626C124.5 87.9626 114.694 81.075 105.467 73.8074C100.75 70.1479 97.3245 65.0849 95.6879 59.3534C93.1429 50.8814 87.7731 43.5325 80.4649 38.522C80.4649 38.522 80.9991 16.531 76.0008 8.92054C68.0725 12.8528 64.2699 16.7688 59.1386 21.2783L48.6748 0.418335C48.6748 0.418335 29.9063 16.9703 24.7525 41.8323C25.1865 41.9876 34.2462 51.7157 37.7725 55.3443C37.7725 55.3443 38.9517 57.054 39.1287 58.3169C39.2759 59.3674 38.8575 61.0193 38.8575 61.0193L42.1125 63.992C47.8087 61.0193 53.9661 60.3205 59.4724 64.2622C66.2749 69.1318 68.6879 78.3147 63.8124 85.8814C58.9369 93.4481 49.3308 93.7457 42.3837 89.3945C35.1368 84.8556 33.1612 76.6932 37.7725 68.0456L34.7887 65.0729C34.7887 65.0729 33.297 65.4788 32.3475 65.3432C31.3148 65.1956 30.8385 64.7288 29.9063 64.2622L17.3847 51.8312C0.241989 71.8342 0.477825 98.5776 0.503191 98.5101C7.25819 91.7751 9.31263 91.7751 9.31263 91.7751Z" fill="#805AD5"/>
</svg>
